<?xml version="1.0" encoding="utf-8"?>
<!-- Generator: Adobe Illustrator 16.0.0, SVG Export Plug-In . SVG Version: 6.00 Build 0)  -->
<!DOCTYPE svg PUBLIC "-//W3C//DTD SVG 1.1//EN" "http://www.w3.org/Graphics/SVG/1.1/DTD/svg11.dtd">
<svg version="1.1" id="Livello_1" xmlns="http://www.w3.org/2000/svg" xmlns:xlink="http://www.w3.org/1999/xlink" x="0px" y="0px"
	 width="57.359px" height="50px" viewBox="0 0 57.359 50" enable-background="new 0 0 57.359 50" xml:space="preserve">
<path fill="#FFFFFF" d="M26.35,41.075c-1.975,0-3.907-0.355-5.746-1.057l-4.209-1.605l4.435-0.793
	c6.183-1.106,10.67-6.468,10.67-12.75c0-6.282-4.488-11.644-10.67-12.75l-4.435-0.793l4.209-1.605
	c1.839-0.701,3.771-1.057,5.746-1.057c8.935,0,16.205,7.27,16.205,16.205C42.554,33.806,35.285,41.075,26.35,41.075z M25.722,38.561
	c0.208,0.01,0.418,0.015,0.628,0.015c7.556,0,13.705-6.148,13.705-13.705c0-7.557-6.148-13.705-13.705-13.705
	c-0.21,0-0.42,0.005-0.628,0.015C30.703,13.787,34,18.991,34,24.871C34,30.75,30.703,35.954,25.722,38.561z"/>
</svg>
