<?xml version="1.0" encoding="utf-8"?>
<!-- Generator: Adobe Illustrator 16.0.0, SVG Export Plug-In . SVG Version: 6.00 Build 0)  -->
<!DOCTYPE svg PUBLIC "-//W3C//DTD SVG 1.1//EN" "http://www.w3.org/Graphics/SVG/1.1/DTD/svg11.dtd">
<svg version="1.1" id="Livello_1" xmlns="http://www.w3.org/2000/svg" xmlns:xlink="http://www.w3.org/1999/xlink" x="0px" y="0px"
	 width="57.359px" height="50px" viewBox="0 0 57.359 50" enable-background="new 0 0 57.359 50" xml:space="preserve">
<path fill="#FFFFFF" d="M37.994,18.117l-9.072-9.072l-9.072,9.072c-2.473,2.473-3.835,5.761-3.835,9.259s1.362,6.786,3.835,9.259
	c2.414,2.414,5.629,3.773,9.053,3.826h0.02h0.02c3.423-0.053,6.638-1.412,9.052-3.826c2.473-2.473,3.834-5.761,3.834-9.259
	S40.466,20.59,37.994,18.117z M36.226,34.867c-1.949,1.948-4.541,3.046-7.304,3.094c-2.764-0.048-5.356-1.146-7.305-3.094
	c-2-2.002-3.103-4.661-3.103-7.491c0-2.831,1.103-5.49,3.103-7.491l7.305-7.305l7.304,7.305c2,2.001,3.102,4.66,3.102,7.491
	C39.328,30.206,38.226,32.865,36.226,34.867z"/>
</svg>
