<?xml version="1.0" encoding="utf-8"?>
<!-- Generator: Adobe Illustrator 16.0.0, SVG Export Plug-In . SVG Version: 6.00 Build 0)  -->
<!DOCTYPE svg PUBLIC "-//W3C//DTD SVG 1.1//EN" "http://www.w3.org/Graphics/SVG/1.1/DTD/svg11.dtd">
<svg version="1.1" id="Livello_1" xmlns="http://www.w3.org/2000/svg" xmlns:xlink="http://www.w3.org/1999/xlink" x="0px" y="0px"
	 width="57.359px" height="50px" viewBox="0 0 57.359 50" enable-background="new 0 0 57.359 50" xml:space="preserve">
<path fill="#FFFFFF" d="M47.57,34.072l-5.271-3.044c0.336-0.363,0.73-0.659,1.18-0.742c0.795-0.148,1.527,0.417,1.559,0.441
	c0.525,0.44,1.309,0.373,1.752-0.149c0.449-0.525,0.385-1.313-0.141-1.761c-0.16-0.138-1.631-1.333-3.578-0.998
	c-1.125,0.193-2.117,0.849-2.969,1.94l-2.01-1.161l0.197-0.343c0.344-0.598,0.139-1.362-0.459-1.708
	c-0.6-0.345-1.363-0.14-1.707,0.458l-0.197,0.343l-4.047-2.336l4.045-2.336l0.199,0.343c0.23,0.402,0.652,0.625,1.084,0.625
	c0.211,0,0.426-0.053,0.623-0.166c0.598-0.346,0.803-1.11,0.459-1.709l-0.199-0.344l2.012-1.16c0.85,1.091,1.844,1.747,2.969,1.941
	c0.238,0.041,0.469,0.059,0.691,0.059c1.596,0,2.746-0.936,2.887-1.057c0.525-0.447,0.59-1.236,0.141-1.762
	c-0.447-0.525-1.236-0.591-1.762-0.141c-0.006,0.006-0.727,0.572-1.533,0.437c-0.455-0.079-0.855-0.378-1.195-0.747l5.271-3.043
	c0.598-0.346,0.803-1.11,0.459-1.708c-0.348-0.599-1.109-0.802-1.709-0.458l-5.271,3.044c-0.146-0.473-0.207-0.963-0.055-1.393
	c0.273-0.77,1.123-1.113,1.162-1.129c0.645-0.235,0.979-0.945,0.748-1.592c-0.23-0.651-0.947-0.991-1.596-0.761
	c-0.199,0.071-1.971,0.746-2.654,2.602c-0.395,1.07-0.322,2.259,0.197,3.541l-2.012,1.161l-0.197-0.343
	c-0.346-0.599-1.109-0.803-1.709-0.458c-0.598,0.346-0.803,1.11-0.457,1.708l0.197,0.343l-4.045,2.336v-4.673h0.396
	c0.689,0,1.25-0.559,1.25-1.25c0-0.689-0.561-1.25-1.25-1.25h-0.396v-2.33c1.367-0.191,2.436-0.718,3.164-1.593
	c1.264-1.519,0.965-3.39,0.926-3.598c-0.125-0.673-0.768-1.103-1.439-0.998c-0.676,0.116-1.129,0.762-1.021,1.438
	c0.002,0.01,0.143,0.938-0.396,1.572c-0.295,0.347-0.75,0.536-1.232,0.645V4.728c0-0.69-0.561-1.25-1.25-1.25
	c-0.69,0-1.25,0.56-1.25,1.25v6.082c-0.482-0.108-0.938-0.298-1.233-0.645c-0.529-0.622-0.403-1.529-0.396-1.57
	c0.117-0.675-0.33-1.321-1.006-1.444c-0.68-0.123-1.33,0.324-1.455,1.003c-0.039,0.208-0.339,2.079,0.925,3.598
	c0.729,0.875,1.798,1.401,3.166,1.593v2.33H27.73c-0.689,0-1.25,0.561-1.25,1.25c0,0.691,0.561,1.25,1.25,1.25h0.397v4.673
	l-4.046-2.336l0.197-0.343c0.346-0.598,0.141-1.362-0.457-1.707c-0.597-0.346-1.362-0.142-1.707,0.457l-0.199,0.343L19.904,18.1
	c0.52-1.282,0.592-2.471,0.197-3.541c-0.684-1.855-2.454-2.529-2.654-2.602c-0.648-0.228-1.365,0.109-1.596,0.76
	c-0.231,0.651,0.109,1.365,0.76,1.597c0.008,0.003,0.863,0.349,1.145,1.108c0.159,0.434,0.101,0.931-0.049,1.409l-5.271-3.044
	c-0.598-0.343-1.363-0.141-1.708,0.458c-0.345,0.598-0.14,1.362,0.458,1.708l5.271,3.044c-0.334,0.363-0.73,0.66-1.18,0.743
	c-0.805,0.154-1.527-0.417-1.559-0.441c-0.523-0.438-1.307-0.375-1.752,0.148c-0.449,0.525-0.386,1.314,0.141,1.762
	c0.141,0.121,1.291,1.057,2.887,1.057c0.223,0,0.453-0.018,0.691-0.059c1.125-0.194,2.119-0.851,2.969-1.941l2.012,1.161
	l-0.198,0.343c-0.345,0.599-0.14,1.363,0.458,1.709c0.196,0.113,0.411,0.166,0.623,0.166c0.432,0,0.853-0.223,1.084-0.625
	l0.198-0.343l4.046,2.336l-4.047,2.336l-0.197-0.343c-0.346-0.599-1.111-0.804-1.707-0.457c-0.598,0.345-0.803,1.109-0.458,1.707
	l0.198,0.343l-2.012,1.161c-0.851-1.092-1.844-1.747-2.969-1.94c-1.948-0.338-3.418,0.86-3.578,0.998
	c-0.526,0.447-0.59,1.235-0.141,1.761c0.447,0.525,1.236,0.591,1.762,0.142c0.007-0.005,0.733-0.572,1.532-0.437
	c0.455,0.078,0.856,0.377,1.196,0.745l-5.271,3.044c-0.598,0.346-0.803,1.11-0.458,1.708c0.231,0.401,0.651,0.625,1.083,0.625
	c0.213,0,0.428-0.054,0.625-0.167l5.271-3.044c0.147,0.472,0.207,0.963,0.055,1.394c-0.274,0.77-1.125,1.114-1.162,1.129
	c-0.644,0.235-0.979,0.945-0.748,1.593c0.182,0.512,0.664,0.831,1.178,0.831c0.139,0,0.28-0.023,0.418-0.072
	c0.2-0.071,1.971-0.746,2.654-2.6c0.395-1.072,0.322-2.261-0.197-3.544l2.012-1.161l0.199,0.344c0.23,0.402,0.651,0.625,1.083,0.625
	c0.212,0,0.427-0.053,0.624-0.166c0.598-0.346,0.803-1.11,0.457-1.709l-0.198-0.344l4.047-2.336v4.673H27.73
	c-0.689,0-1.25,0.56-1.25,1.25s0.561,1.25,1.25,1.25h0.397v2.33c-1.368,0.192-2.437,0.718-3.166,1.593
	c-1.264,1.519-0.964,3.39-0.925,3.599c0.11,0.601,0.633,1.017,1.224,1.017c0.071,0,0.144-0.007,0.216-0.019
	c0.676-0.116,1.129-0.763,1.021-1.438c-0.002-0.01-0.143-0.938,0.396-1.572c0.295-0.348,0.751-0.537,1.233-0.646v6.084
	c0,0.69,0.56,1.25,1.25,1.25c0.69,0,1.25-0.56,1.25-1.25v-6.084c0.482,0.108,0.938,0.299,1.232,0.646
	c0.529,0.62,0.404,1.524,0.396,1.57c-0.117,0.675,0.33,1.319,1.006,1.444c0.076,0.014,0.152,0.02,0.227,0.02
	c0.592,0,1.117-0.42,1.229-1.022c0.039-0.209,0.338-2.08-0.926-3.599c-0.729-0.875-1.797-1.4-3.164-1.593v-2.33h0.396
	c0.689,0,1.25-0.56,1.25-1.25s-0.561-1.25-1.25-1.25h-0.396v-4.673l4.047,2.336l-0.199,0.344c-0.346,0.599-0.141,1.363,0.457,1.709
	c0.197,0.113,0.412,0.166,0.625,0.166c0.432,0,0.852-0.223,1.084-0.625l0.199-0.343l2.01,1.16c-0.52,1.283-0.592,2.472-0.197,3.543
	c0.684,1.854,2.455,2.53,2.654,2.601c0.139,0.049,0.279,0.072,0.418,0.072c0.514,0,0.996-0.319,1.178-0.832
	c0.232-0.65-0.107-1.365-0.76-1.596c-0.008-0.003-0.863-0.349-1.145-1.109c-0.158-0.434-0.1-0.932,0.049-1.409l5.271,3.044
	c0.197,0.113,0.412,0.167,0.625,0.167c0.432,0,0.852-0.224,1.084-0.625C48.373,35.183,48.167,34.418,47.57,34.072z"/>
</svg>
