<?xml version="1.0" encoding="utf-8"?>
<!-- Generator: Adobe Illustrator 16.0.0, SVG Export Plug-In . SVG Version: 6.00 Build 0)  -->
<!DOCTYPE svg PUBLIC "-//W3C//DTD SVG 1.1//EN" "http://www.w3.org/Graphics/SVG/1.1/DTD/svg11.dtd">
<svg version="1.1" id="Livello_1" xmlns="http://www.w3.org/2000/svg" xmlns:xlink="http://www.w3.org/1999/xlink" x="0px" y="0px"
	 width="57.359px" height="50px" viewBox="0 0 57.359 50" enable-background="new 0 0 57.359 50" xml:space="preserve">
<g>
	<path fill="#FFFFFF" d="M48.394,30.409c-0.707-11.309-8.389-19.616-18.459-20.258V9.01c0-0.69-0.56-1.25-1.25-1.25
		s-1.25,0.56-1.25,1.25v1.142c-10.07,0.642-17.752,8.949-18.46,20.258l-0.084,1.327h2.534l0.184-1.029
		c0.285-1.596,1.668-2.754,3.289-2.754s3.004,1.158,3.289,2.754l0.184,1.029h2.246l0.184-1.029c0.285-1.596,1.668-2.754,3.289-2.754
		s3.004,1.158,3.289,2.754l0.057,0.317v14.286c0,1.187-0.966,2.15-2.152,2.15s-2.151-0.964-2.151-2.15v-2.042
		c0-0.69-0.56-1.25-1.25-1.25s-1.25,0.56-1.25,1.25v2.042c0,2.564,2.087,4.65,4.651,4.65c2.565,0,4.653-2.086,4.653-4.65V31.024
		l0.057-0.317c0.285-1.596,1.668-2.754,3.289-2.754s3.004,1.158,3.289,2.754l0.184,1.029h2.244l0.184-1.029
		c0.285-1.596,1.67-2.754,3.289-2.754c1.621,0,3.006,1.158,3.291,2.754l0.184,1.029h2.533L48.394,30.409z M42.47,25.453
		c-1.846,0-3.518,0.86-4.594,2.232c-1.078-1.372-2.748-2.232-4.596-2.232s-3.52,0.86-4.596,2.232
		c-1.077-1.372-2.748-2.232-4.596-2.232s-3.519,0.86-4.596,2.232c-1.077-1.372-2.748-2.232-4.596-2.232
		c-0.974,0-1.899,0.239-2.714,0.666c2.141-8.053,8.566-13.53,16.501-13.53c7.936,0,14.362,5.478,16.5,13.53
		C44.371,25.692,43.445,25.453,42.47,25.453z"/>
	<path fill="#FFFFFF" d="M11.86,8.978c0.69,0,1.25-0.56,1.25-1.25V1.313c0-0.69-0.56-1.25-1.25-1.25s-1.25,0.56-1.25,1.25v6.415
		C10.61,8.418,11.17,8.978,11.86,8.978z"/>
	<path fill="#FFFFFF" d="M17.468,5.77c0.69,0,1.25-0.56,1.25-1.25V1.313c0-0.69-0.56-1.25-1.25-1.25s-1.25,0.56-1.25,1.25V4.52
		C16.218,5.21,16.777,5.77,17.468,5.77z"/>
	<path fill="#FFFFFF" d="M23.076,8.978c0.69,0,1.25-0.56,1.25-1.25V1.313c0-0.69-0.56-1.25-1.25-1.25s-1.25,0.56-1.25,1.25v6.415
		C21.826,8.418,22.386,8.978,23.076,8.978z"/>
	<path fill="#FFFFFF" d="M28.685,5.77c0.69,0,1.25-0.56,1.25-1.25V1.313c0-0.69-0.56-1.25-1.25-1.25s-1.25,0.56-1.25,1.25V4.52
		C27.435,5.21,27.994,5.77,28.685,5.77z"/>
	<path fill="#FFFFFF" d="M34.292,8.978c0.691,0,1.25-0.56,1.25-1.25V1.313c0-0.69-0.559-1.25-1.25-1.25
		c-0.689,0-1.25,0.56-1.25,1.25v6.415C33.042,8.418,33.603,8.978,34.292,8.978z"/>
	<path fill="#FFFFFF" d="M39.9,5.77c0.691,0,1.25-0.56,1.25-1.25V1.313c0-0.69-0.559-1.25-1.25-1.25c-0.689,0-1.25,0.56-1.25,1.25
		V4.52C38.65,5.21,39.21,5.77,39.9,5.77z"/>
	<path fill="#FFFFFF" d="M45.509,8.978c0.689,0,1.25-0.56,1.25-1.25V1.313c0-0.69-0.561-1.25-1.25-1.25
		c-0.691,0-1.25,0.56-1.25,1.25v6.415C44.259,8.418,44.818,8.978,45.509,8.978z"/>
	<path fill="#FFFFFF" d="M11.856,13.236c0.33,0,0.65-0.131,0.891-0.371c0.229-0.229,0.359-0.551,0.359-0.879
		c0-0.33-0.13-0.65-0.359-0.881c-0.471-0.47-1.311-0.47-1.771,0c-0.229,0.23-0.37,0.551-0.37,0.881c0,0.328,0.141,0.649,0.37,0.879
		C11.207,13.105,11.526,13.236,11.856,13.236z"/>
	<path fill="#FFFFFF" d="M17.467,9.996c0.33,0,0.65-0.131,0.89-0.37c0.23-0.231,0.36-0.562,0.36-0.88c0-0.32-0.13-0.65-0.37-0.891
		c-0.47-0.461-1.3-0.461-1.76,0c-0.24,0.24-0.37,0.561-0.37,0.891s0.13,0.648,0.37,0.88C16.816,9.855,17.137,9.996,17.467,9.996z"/>
	<path fill="#FFFFFF" d="M39.896,9.996c0.33,0,0.65-0.131,0.891-0.37c0.23-0.231,0.359-0.562,0.359-0.88
		c0-0.32-0.129-0.65-0.359-0.891c-0.48-0.461-1.311-0.461-1.77,0c-0.23,0.24-0.371,0.561-0.371,0.891s0.141,0.648,0.371,0.88
		C39.248,9.855,39.566,9.996,39.896,9.996z"/>
	<path fill="#FFFFFF" d="M45.507,13.236c0.33,0,0.65-0.131,0.889-0.371c0.23-0.229,0.361-0.551,0.361-0.879
		c0-0.33-0.131-0.65-0.361-0.881c-0.469-0.47-1.309-0.47-1.77,0c-0.23,0.23-0.369,0.551-0.369,0.881
		c0,0.328,0.139,0.649,0.369,0.879C44.857,13.105,45.177,13.236,45.507,13.236z"/>
</g>
</svg>
