<?xml version="1.0" encoding="utf-8"?>
<!-- Generator: Adobe Illustrator 16.0.0, SVG Export Plug-In . SVG Version: 6.00 Build 0)  -->
<!DOCTYPE svg PUBLIC "-//W3C//DTD SVG 1.1//EN" "http://www.w3.org/Graphics/SVG/1.1/DTD/svg11.dtd">
<svg version="1.1" id="Livello_1" xmlns="http://www.w3.org/2000/svg" xmlns:xlink="http://www.w3.org/1999/xlink" x="0px" y="0px"
	 width="57.359px" height="50px" viewBox="0 0 57.359 50" enable-background="new 0 0 57.359 50" xml:space="preserve">
<path fill="#FFFFFF" d="M55.408,20.04c0-5.9-4.8-10.7-10.7-10.7c-3.644,0-6.863,1.833-8.796,4.624
	c-0.104-0.004-0.205-0.016-0.31-0.016c-1.493,0-2.935,0.364-4.233,1.063c-2.129-3.081-5.635-4.947-9.435-4.947
	c-6.329,0-11.477,5.147-11.477,11.476c0,0.629,0.052,1.258,0.155,1.879c-4.443,0.186-8,3.859-8,8.346
	c0,4.606,3.748,8.354,8.355,8.354h30.645c4.606,0,8.354-3.748,8.354-8.354c0-0.771-0.125-1.52-0.328-2.237
	C53.062,27.739,55.408,24.162,55.408,20.04z M47.467,31.764c0,3.229-2.626,5.854-5.854,5.854H10.968
	c-3.229,0-5.855-2.626-5.855-5.854s2.627-5.854,5.855-5.854h2.941l-0.522-1.632c-0.285-0.889-0.43-1.812-0.43-2.739
	c0-4.95,4.026-8.976,8.977-8.976c3.325,0,6.364,1.828,7.929,4.772l0.686,1.289l1.168-0.876c0.865-0.648,1.853-1.06,2.896-1.221
	c0.325-0.05,0.654-0.08,0.989-0.08c0.567,0,1.115,0.081,1.641,0.219c2.788,0.73,4.854,3.263,4.854,6.277
	c0,0.51-0.067,1.04-0.201,1.574l-0.313,1.253l1.265,0.272c1.344,0.287,2.502,1.037,3.322,2.06c0.538,0.669,0.913,1.461,1.118,2.311
	C47.393,30.852,47.467,31.299,47.467,31.764z M48.61,27.251c-0.963-1.487-2.372-2.673-4.072-3.312
	c0.039-0.334,0.059-0.667,0.059-0.997c0-3.878-2.472-7.181-5.917-8.441c1.499-1.631,3.643-2.662,6.028-2.662
	c4.521,0,8.2,3.679,8.2,8.2C52.908,23.15,51.167,25.861,48.61,27.251z"/>
</svg>
