<?xml version="1.0" encoding="utf-8"?>
<!-- Generator: Adobe Illustrator 16.0.0, SVG Export Plug-In . SVG Version: 6.00 Build 0)  -->
<!DOCTYPE svg PUBLIC "-//W3C//DTD SVG 1.1//EN" "http://www.w3.org/Graphics/SVG/1.1/DTD/svg11.dtd">
<svg version="1.1" id="Livello_1" xmlns="http://www.w3.org/2000/svg" xmlns:xlink="http://www.w3.org/1999/xlink" x="0px" y="0px"
	 width="57.359px" height="50px" viewBox="0 0 57.359 50" enable-background="new 0 0 57.359 50" xml:space="preserve">
<g>
	<path fill="#FFFFFF" d="M36.91,8.736c-3.113,0-6.146,0.896-8.773,2.592l-2.1,1.355l2.346,0.867
		c4.753,1.757,7.947,6.334,7.947,11.391c0,5.056-3.193,9.634-7.948,11.392L26.037,37.2l2.1,1.355
		c2.625,1.695,5.658,2.591,8.773,2.591c8.936,0,16.205-7.27,16.205-16.205S45.845,8.736,36.91,8.736z M36.91,38.646
		c-1.838,0-3.643-0.369-5.32-1.08c4.414-2.601,7.24-7.401,7.24-12.625c0-5.225-2.826-10.024-7.24-12.624
		c1.678-0.712,3.482-1.081,5.32-1.081c7.557,0,13.705,6.148,13.705,13.705S44.466,38.646,36.91,38.646z"/>
	<path fill="#FFFFFF" d="M25.477,25.129l1.767-1.722c0.341-0.332,0.464-0.829,0.316-1.282c-0.147-0.452-0.538-0.782-1.009-0.851
		l-2.441-0.354l-1.092-2.212c-0.211-0.426-0.646-0.696-1.121-0.696c-0.477,0-0.91,0.271-1.121,0.697l-1.092,2.211l-2.441,0.354
		c-0.471,0.068-0.861,0.398-1.009,0.851c-0.147,0.453-0.024,0.95,0.316,1.282l1.767,1.722l-0.417,2.432
		c-0.081,0.469,0.112,0.942,0.497,1.222c0.385,0.281,0.896,0.316,1.316,0.096l2.184-1.147l2.184,1.147
		c0.184,0.096,0.383,0.144,0.582,0.144c0.259,0,0.517-0.08,0.734-0.239c0.385-0.279,0.578-0.753,0.497-1.222L25.477,25.129z
		 M23.261,23.797c-0.294,0.287-0.429,0.701-0.359,1.106l0.101,0.584l-0.523-0.275c-0.183-0.096-0.383-0.144-0.582-0.144
		s-0.399,0.048-0.582,0.144l-0.523,0.275l0.101-0.584c0.069-0.405-0.065-0.819-0.359-1.106l-0.423-0.412l0.584-0.085
		c0.408-0.06,0.76-0.315,0.941-0.685l0.262-0.529l0.262,0.53c0.182,0.368,0.534,0.624,0.941,0.684l0.584,0.085L23.261,23.797z"/>
	<path fill="#FFFFFF" d="M12.881,30.204l-1.496-0.217l-0.669-1.355c-0.211-0.427-0.646-0.697-1.121-0.697s-0.91,0.271-1.12,0.696
		l-0.67,1.356l-1.496,0.217c-0.471,0.068-0.862,0.398-1.01,0.851c-0.146,0.453-0.024,0.949,0.316,1.281l1.082,1.057l-0.255,1.49
		c-0.081,0.469,0.112,0.942,0.497,1.222c0.385,0.28,0.894,0.315,1.316,0.096l1.339-0.703l1.339,0.703
		c0.184,0.096,0.383,0.144,0.582,0.144c0.259,0,0.517-0.08,0.734-0.239c0.385-0.279,0.578-0.753,0.497-1.222l-0.255-1.49
		l1.082-1.057c0.341-0.332,0.463-0.828,0.316-1.281C13.743,30.603,13.352,30.272,12.881,30.204z M9.901,32.873
		c-0.101-0.025-0.204-0.038-0.307-0.038s-0.206,0.013-0.307,0.038C9.274,32.666,9.209,32.466,9.1,32.29
		c0.191-0.077,0.362-0.2,0.494-0.359c0.133,0.159,0.305,0.283,0.496,0.359C9.98,32.466,9.915,32.666,9.901,32.873z"/>
</g>
</svg>
