<?xml version="1.0" encoding="utf-8"?>
<!-- Generator: Adobe Illustrator 16.0.0, SVG Export Plug-In . SVG Version: 6.00 Build 0)  -->
<!DOCTYPE svg PUBLIC "-//W3C//DTD SVG 1.1//EN" "http://www.w3.org/Graphics/SVG/1.1/DTD/svg11.dtd">
<svg version="1.1" id="Livello_1" xmlns="http://www.w3.org/2000/svg" xmlns:xlink="http://www.w3.org/1999/xlink" x="0px" y="0px"
	 width="57.359px" height="50px" viewBox="0 0 57.359 50" enable-background="new 0 0 57.359 50" xml:space="preserve">
<path fill="#FFFFFF" d="M44.259,39.757H13.615c-4.606,0-8.354-3.747-8.354-8.354c0-4.488,3.557-8.161,8-8.347
	c-0.104-0.621-0.155-1.249-0.155-1.879c0-6.328,5.147-11.476,11.476-11.476c3.801,0,7.307,1.867,9.436,4.948
	c1.299-0.699,2.738-1.063,4.232-1.063c4.959,0,8.994,4.036,8.994,8.995c0,0.329-0.02,0.662-0.059,0.997
	c3.207,1.204,5.43,4.323,5.43,7.824C52.615,36.01,48.867,39.757,44.259,39.757z M13.615,25.548c-3.229,0-5.854,2.626-5.854,5.854
	s2.626,5.854,5.854,5.854h30.644c3.229,0,5.855-2.626,5.855-5.854c0-2.741-1.943-5.146-4.621-5.722l-1.266-0.271l0.314-1.254
	c0.133-0.534,0.201-1.063,0.201-1.574c0-3.581-2.914-6.495-6.494-6.495c-1.406,0-2.75,0.45-3.887,1.301l-1.168,0.876l-0.686-1.29
	c-1.564-2.944-4.602-4.772-7.928-4.772c-4.949,0-8.976,4.026-8.976,8.976c0,0.928,0.145,1.85,0.43,2.739l0.522,1.632H13.615z"/>
</svg>
