<?xml version="1.0" encoding="utf-8"?>
<!-- Generator: Adobe Illustrator 16.0.0, SVG Export Plug-In . SVG Version: 6.00 Build 0)  -->
<!DOCTYPE svg PUBLIC "-//W3C//DTD SVG 1.1//EN" "http://www.w3.org/Graphics/SVG/1.1/DTD/svg11.dtd">
<svg version="1.1" id="Livello_1" xmlns="http://www.w3.org/2000/svg" xmlns:xlink="http://www.w3.org/1999/xlink" x="0px" y="0px"
	 width="57.359px" height="50px" viewBox="0 0 57.359 50" enable-background="new 0 0 57.359 50" xml:space="preserve">
<path fill="#FFFFFF" d="M50.32,23.48h-8.762c-0.252-2.565-1.27-4.909-2.822-6.798l4.457-4.457c0.488-0.488,0.488-1.279,0-1.768
	s-1.279-0.488-1.768,0l-4.457,4.457c-1.889-1.552-4.232-2.569-6.797-2.821V3.331c0-0.69-0.56-1.25-1.25-1.25
	c-0.691,0-1.25,0.56-1.25,1.25v8.762c-2.565,0.252-4.908,1.269-6.799,2.821l-4.456-4.457c-0.488-0.488-1.279-0.488-1.768,0
	s-0.488,1.279,0,1.768l4.456,4.457c-1.551,1.89-2.568,4.233-2.82,6.798H7.523c-0.689,0-1.25,0.559-1.25,1.25
	c0,0.69,0.561,1.25,1.25,1.25h8.762c0.252,2.565,1.27,4.908,2.82,6.797l-4.456,4.457c-0.488,0.487-0.488,1.279,0,1.767
	c0.244,0.244,0.563,0.366,0.884,0.366s0.64-0.122,0.884-0.366l4.456-4.456c1.891,1.552,4.233,2.568,6.799,2.82v8.762
	c0,0.691,0.559,1.25,1.25,1.25c0.689,0,1.25-0.559,1.25-1.25v-8.762c2.564-0.252,4.908-1.269,6.799-2.82l4.455,4.456
	c0.244,0.244,0.564,0.366,0.885,0.366c0.318,0,0.639-0.122,0.883-0.366c0.488-0.487,0.488-1.279,0-1.767l-4.457-4.457
	c1.553-1.89,2.57-4.232,2.822-6.797h8.762c0.689,0,1.25-0.56,1.25-1.25C51.57,24.039,51.009,23.48,50.32,23.48z M28.922,34.929
	c-5.625,0-10.2-4.575-10.2-10.199c0-5.625,4.575-10.2,10.2-10.2c5.625,0,10.199,4.576,10.199,10.2
	C39.121,30.354,34.546,34.929,28.922,34.929z"/>
</svg>
