<?xml version="1.0" encoding="utf-8"?>
<!-- Generator: Adobe Illustrator 16.0.0, SVG Export Plug-In . SVG Version: 6.00 Build 0)  -->
<!DOCTYPE svg PUBLIC "-//W3C//DTD SVG 1.1//EN" "http://www.w3.org/Graphics/SVG/1.1/DTD/svg11.dtd">
<svg version="1.1" id="Livello_1" xmlns="http://www.w3.org/2000/svg" xmlns:xlink="http://www.w3.org/1999/xlink" x="0px" y="0px"
	 width="57.359px" height="50px" viewBox="0 0 57.359 50" enable-background="new 0 0 57.359 50" xml:space="preserve">
<g>
	<path fill="#FFFFFF" d="M17.064,8.98c-1.952,0-3.54,1.588-3.54,3.539c0,1.952,1.588,3.54,3.54,3.54s3.54-1.588,3.54-3.54
		C20.604,10.568,19.017,8.98,17.064,8.98z M17.064,13.56c-0.573,0-1.04-0.466-1.04-1.04c0-0.572,0.467-1.039,1.04-1.039
		s1.04,0.467,1.04,1.039C18.104,13.094,17.638,13.56,17.064,13.56z"/>
	<path fill="#FFFFFF" d="M43.099,13.908H26.696c-0.69,0-1.25,0.56-1.25,1.25v24.637c0,0.691,0.56,1.25,1.25,1.25
		s1.25-0.559,1.25-1.25V28.648h9.202c0.689,0,1.25-0.56,1.25-1.25c0-0.691-0.561-1.25-1.25-1.25h-9.202v-9.74h15.153
		c0.689,0,1.25-0.56,1.25-1.25S43.789,13.908,43.099,13.908z"/>
</g>
</svg>
