<?xml version="1.0" encoding="utf-8"?>
<!-- Generator: Adobe Illustrator 16.0.0, SVG Export Plug-In . SVG Version: 6.00 Build 0)  -->
<!DOCTYPE svg PUBLIC "-//W3C//DTD SVG 1.1//EN" "http://www.w3.org/Graphics/SVG/1.1/DTD/svg11.dtd">
<svg version="1.1" id="Livello_1" xmlns="http://www.w3.org/2000/svg" xmlns:xlink="http://www.w3.org/1999/xlink" x="0px" y="0px"
	 width="57.359px" height="50px" viewBox="0 0 57.359 50" enable-background="new 0 0 57.359 50" xml:space="preserve">
<path fill="#FFFFFF" d="M53.708,18.149h-4.457c-0.195-1.189-0.662-2.285-1.338-3.225l2.172-2.173c0.488-0.488,0.488-1.279,0-1.768
	s-1.279-0.488-1.768,0l-2.172,2.173c-0.939-0.676-2.035-1.142-3.225-1.337V7.363c0-0.69-0.559-1.25-1.25-1.25
	c-0.689,0-1.25,0.56-1.25,1.25v4.457c-1.189,0.195-2.285,0.661-3.225,1.337l-2.172-2.173c-0.488-0.488-1.279-0.488-1.768,0
	s-0.488,1.279,0,1.768l2.172,2.172c-0.521,0.725-0.918,1.542-1.162,2.423c-0.916,0.167-1.801,0.459-2.625,0.902
	c-2.129-3.082-5.635-4.948-9.436-4.948c-6.328,0-11.476,5.147-11.476,11.476c0,0.63,0.052,1.257,0.154,1.878
	c-4.442,0.188-8,3.859-8,8.348c0,4.607,3.748,8.355,8.355,8.355h30.644c4.607,0,8.355-3.748,8.355-8.355
	c0-3.502-2.223-6.621-5.432-7.824c0.031-0.264,0.041-0.525,0.047-0.787c0.457-0.209,0.889-0.459,1.291-0.75l2.172,2.171
	c0.244,0.244,0.564,0.367,0.885,0.367s0.639-0.123,0.883-0.367c0.488-0.488,0.488-1.279,0-1.768l-2.172-2.171
	c0.676-0.94,1.143-2.036,1.338-3.224h4.457c0.689,0,1.25-0.56,1.25-1.25C54.958,18.708,54.398,18.149,53.708,18.149z M47.74,35.002
	c0,3.229-2.627,5.855-5.855,5.855H11.24c-3.229,0-5.855-2.627-5.855-5.855c0-3.228,2.627-5.855,5.855-5.855h2.942l-0.522-1.631
	c-0.285-0.891-0.43-1.812-0.43-2.74c0-4.949,4.026-8.976,8.976-8.976c3.326,0,6.364,1.829,7.928,4.773l0.686,1.289l1.168-0.876
	c0.619-0.463,1.303-0.796,2.021-1.014c0.6-0.182,1.225-0.287,1.863-0.287c0.217,0,0.43,0.012,0.641,0.033
	c2.729,0.268,4.959,2.233,5.637,4.822c0.137,0.525,0.219,1.072,0.219,1.639c0,0.287-0.027,0.581-0.07,0.878
	c-0.033,0.231-0.074,0.464-0.133,0.698l-0.313,1.254l1.264,0.271C45.794,29.854,47.74,32.26,47.74,35.002z M44.519,23.73
	c-0.975-3.434-3.938-6.034-7.563-6.472c0.818-1.793,2.617-3.049,4.715-3.049c2.861,0,5.191,2.328,5.191,5.191
	C46.863,21.209,45.927,22.801,44.519,23.73z"/>
</svg>
