<?xml version="1.0" encoding="utf-8"?>
<!-- Generator: Adobe Illustrator 16.0.0, SVG Export Plug-In . SVG Version: 6.00 Build 0)  -->
<!DOCTYPE svg PUBLIC "-//W3C//DTD SVG 1.1//EN" "http://www.w3.org/Graphics/SVG/1.1/DTD/svg11.dtd">
<svg version="1.1" id="Livello_1" xmlns="http://www.w3.org/2000/svg" xmlns:xlink="http://www.w3.org/1999/xlink" x="0px" y="0px"
	 width="57.359px" height="50px" viewBox="0 0 57.359 50" enable-background="new 0 0 57.359 50" xml:space="preserve">
<path fill="#FFFFFF" d="M54.093,19.86c0-6.304-5.129-11.433-11.432-11.433c-2.449,0-5.934,1.463-5.934,1.463
	s7.496,1.463,8.893,9.114c-1.5-2.883-4.502-4.862-7.969-4.862c-1.492,0-2.934,0.364-4.232,1.063
	c-2.131-3.082-5.636-4.948-9.437-4.948c-6.327,0-11.475,5.147-11.475,11.476c0,0.63,0.052,1.258,0.154,1.879
	c-4.443,0.186-8,3.858-8,8.347c0,4.607,3.748,8.355,8.355,8.355h30.644c4.607,0,8.355-3.748,8.355-8.355
	c0-1.499-0.43-2.914-1.148-4.152C52.863,25.748,54.093,22.945,54.093,19.86z M43.724,10.991c4.428,0.527,7.869,4.304,7.869,8.869
	c0,2.297-0.883,4.383-2.313,5.967c-0.182-0.167-0.355-0.342-0.551-0.493c-0.453-0.349-0.957-0.632-1.48-0.88
	c0.652-1.402,1.02-2.959,1.02-4.594C48.269,16.243,46.503,12.988,43.724,10.991z M43.662,37.814H13.018
	c-3.229,0-5.855-2.627-5.855-5.855s2.627-5.854,5.855-5.854h2.941l-0.522-1.631c-0.284-0.891-0.429-1.813-0.429-2.74
	c0-4.949,4.025-8.976,8.975-8.976c3.327,0,6.365,1.829,7.929,4.773l0.684,1.289l1.17-0.876c1.137-0.852,2.48-1.302,3.887-1.302
	c3.58,0,6.494,2.914,6.494,6.495c0,0.289-0.027,0.585-0.07,0.883c-0.033,0.229-0.074,0.46-0.131,0.692l-0.313,1.254l1.264,0.271
	c0.133,0.028,0.256,0.082,0.387,0.119c0.336,0.098,0.656,0.223,0.965,0.375c0.85,0.424,1.574,1.037,2.125,1.791
	c0.713,0.978,1.145,2.166,1.145,3.436C49.517,35.188,46.89,37.814,43.662,37.814z"/>
</svg>
