<?xml version="1.0" encoding="utf-8"?>
<!-- Generator: Adobe Illustrator 16.0.0, SVG Export Plug-In . SVG Version: 6.00 Build 0)  -->
<!DOCTYPE svg PUBLIC "-//W3C//DTD SVG 1.1//EN" "http://www.w3.org/Graphics/SVG/1.1/DTD/svg11.dtd">
<svg version="1.1" id="Livello_1" xmlns="http://www.w3.org/2000/svg" xmlns:xlink="http://www.w3.org/1999/xlink" x="0px" y="0px"
	 width="57.359px" height="50px" viewBox="0 0 57.359 50" enable-background="new 0 0 57.359 50" xml:space="preserve">
<g>
	<path fill="#FFFFFF" d="M46.931,15.261c0.039-0.335,0.059-0.668,0.059-0.997c0-4.96-4.035-8.995-8.994-8.995
		c-1.492,0-2.934,0.364-4.232,1.063c-2.129-3.082-5.634-4.948-9.435-4.948c-6.328,0-11.476,5.147-11.476,11.476
		c0,0.63,0.052,1.258,0.155,1.879c-4.443,0.186-8,3.858-8,8.347c0,4.606,3.748,8.354,8.354,8.354h30.645
		c4.605,0,8.354-3.748,8.354-8.354C52.361,19.584,50.138,16.465,46.931,15.261z M44.007,28.939H13.362
		c-3.229,0-5.854-2.626-5.854-5.854s2.626-5.854,5.854-5.854h2.942l-0.522-1.632c-0.285-0.89-0.43-1.812-0.43-2.739
		c0-4.949,4.026-8.976,8.976-8.976c3.326,0,6.365,1.828,7.929,4.772l0.684,1.289l1.17-0.876c1.135-0.851,2.479-1.301,3.885-1.301
		c3.582,0,6.494,2.914,6.494,6.495c0,0.511-0.066,1.04-0.201,1.574l-0.313,1.254l1.264,0.271c2.678,0.574,4.621,2.98,4.621,5.722
		C49.861,26.313,47.236,28.939,44.007,28.939z"/>
	<path fill="#FFFFFF" d="M15.213,33.508c-0.69,0-1.25,0.56-1.25,1.25v7.954c0,0.69,0.56,1.25,1.25,1.25s1.25-0.56,1.25-1.25v-7.954
		C16.463,34.067,15.903,33.508,15.213,33.508z"/>
	<path fill="#FFFFFF" d="M26.171,33.508c-0.69,0-1.25,0.56-1.25,1.25v7.954c0,0.69,0.56,1.25,1.25,1.25s1.25-0.56,1.25-1.25v-7.954
		C27.421,34.067,26.861,33.508,26.171,33.508z"/>
	<path fill="#FFFFFF" d="M31.65,33.508c-0.691,0-1.25,0.56-1.25,1.25v12.208c0,0.69,0.559,1.25,1.25,1.25
		c0.689,0,1.25-0.56,1.25-1.25V34.758C32.9,34.067,32.339,33.508,31.65,33.508z"/>
	<path fill="#FFFFFF" d="M20.692,33.508c-0.69,0-1.25,0.56-1.25,1.25v12.208c0,0.69,0.56,1.25,1.25,1.25s1.25-0.56,1.25-1.25V34.758
		C21.942,34.067,21.383,33.508,20.692,33.508z"/>
	<path fill="#FFFFFF" d="M37.128,33.508c-0.691,0-1.25,0.56-1.25,1.25v7.954c0,0.69,0.559,1.25,1.25,1.25
		c0.689,0,1.25-0.56,1.25-1.25v-7.954C38.378,34.067,37.818,33.508,37.128,33.508z"/>
	<path fill="#FFFFFF" d="M42.259,33.508c-0.691,0-1.25,0.56-1.25,1.25v3.977c0,0.69,0.559,1.25,1.25,1.25
		c0.689,0,1.25-0.56,1.25-1.25v-3.977C43.509,34.067,42.949,33.508,42.259,33.508z"/>
</g>
</svg>
