<?xml version="1.0" encoding="utf-8"?>
<!-- Generator: Adobe Illustrator 16.0.0, SVG Export Plug-In . SVG Version: 6.00 Build 0)  -->
<!DOCTYPE svg PUBLIC "-//W3C//DTD SVG 1.1//EN" "http://www.w3.org/Graphics/SVG/1.1/DTD/svg11.dtd">
<svg version="1.1" id="Livello_1" xmlns="http://www.w3.org/2000/svg" xmlns:xlink="http://www.w3.org/1999/xlink" x="0px" y="0px"
	 width="57.359px" height="50px" viewBox="0 0 57.359 50" enable-background="new 0 0 57.359 50" xml:space="preserve">
<g>
	<path fill="#FFFFFF" d="M46.931,18.155c0.039-0.335,0.059-0.668,0.059-0.997c0-4.96-4.035-8.995-8.994-8.995
		c-1.492,0-2.934,0.364-4.232,1.063c-2.129-3.082-5.634-4.948-9.435-4.948c-6.328,0-11.476,5.147-11.476,11.476
		c0,0.63,0.052,1.258,0.155,1.879c-4.443,0.186-8,3.858-8,8.347c0,4.607,3.748,8.355,8.354,8.355h30.645
		c4.605,0,8.354-3.748,8.354-8.355C52.361,22.479,50.138,19.359,46.931,18.155z M44.007,31.835H13.362
		c-3.229,0-5.854-2.627-5.854-5.855s2.626-5.854,5.854-5.854h2.942l-0.522-1.632c-0.285-0.89-0.43-1.812-0.43-2.739
		c0-4.949,4.026-8.976,8.976-8.976c3.326,0,6.365,1.829,7.929,4.773l0.684,1.289l1.17-0.876c1.135-0.852,2.48-1.302,3.885-1.302
		c3.582,0,6.494,2.914,6.494,6.495c0,0.511-0.066,1.04-0.201,1.574l-0.313,1.254l1.264,0.271c2.678,0.574,4.621,2.98,4.621,5.722
		C49.861,29.208,47.236,31.835,44.007,31.835z"/>
	<path fill="#FFFFFF" d="M22.349,40.012c-0.69,0-1.25,0.594-1.25,1.284s0.56,1.25,1.25,1.25s1.25-0.56,1.25-1.25v-0.068
		C23.599,40.537,23.039,40.012,22.349,40.012z"/>
	<path fill="#FFFFFF" d="M16.014,36.871c-0.69,0-1.25,0.594-1.25,1.284s0.56,1.25,1.25,1.25s1.25-0.56,1.25-1.25v-0.068
		C17.264,37.396,16.704,36.871,16.014,36.871z"/>
	<path fill="#FFFFFF" d="M16.014,43.07c-0.69,0-1.25,0.594-1.25,1.284s0.56,1.25,1.25,1.25s1.25-0.56,1.25-1.25v-0.068
		C17.264,43.596,16.704,43.07,16.014,43.07z"/>
	<path fill="#FFFFFF" d="M35.019,40.012c-0.689,0-1.25,0.594-1.25,1.284s0.561,1.25,1.25,1.25c0.691,0,1.25-0.56,1.25-1.25v-0.068
		C36.269,40.537,35.71,40.012,35.019,40.012z"/>
	<path fill="#FFFFFF" d="M28.685,36.871c-0.69,0-1.25,0.594-1.25,1.284s0.56,1.25,1.25,1.25s1.25-0.56,1.25-1.25v-0.068
		C29.935,37.396,29.375,36.871,28.685,36.871z"/>
	<path fill="#FFFFFF" d="M28.685,43.07c-0.69,0-1.25,0.594-1.25,1.284s0.56,1.25,1.25,1.25s1.25-0.56,1.25-1.25v-0.068
		C29.935,43.596,29.375,43.07,28.685,43.07z"/>
	<path fill="#FFFFFF" d="M41.355,36.871c-0.689,0-1.25,0.594-1.25,1.284s0.561,1.25,1.25,1.25c0.691,0,1.25-0.56,1.25-1.25v-0.068
		C42.605,37.396,42.046,36.871,41.355,36.871z"/>
	<path fill="#FFFFFF" d="M41.355,43.07c-0.689,0-1.25,0.594-1.25,1.284s0.561,1.25,1.25,1.25c0.691,0,1.25-0.56,1.25-1.25v-0.068
		C42.605,43.596,42.046,43.07,41.355,43.07z"/>
</g>
</svg>
