<?xml version="1.0" encoding="utf-8"?>
<!-- Generator: Adobe Illustrator 16.0.0, SVG Export Plug-In . SVG Version: 6.00 Build 0)  -->
<!DOCTYPE svg PUBLIC "-//W3C//DTD SVG 1.1//EN" "http://www.w3.org/Graphics/SVG/1.1/DTD/svg11.dtd">
<svg version="1.1" id="Livello_1" xmlns="http://www.w3.org/2000/svg" xmlns:xlink="http://www.w3.org/1999/xlink" x="0px" y="0px"
	 width="57.359px" height="50px" viewBox="0 0 57.359 50" enable-background="new 0 0 57.359 50" xml:space="preserve">
<g>
	<path fill="#FFFFFF" d="M34.433,32.303V7.912c0-2.898-2.359-5.257-5.257-5.257c-2.898,0-5.258,2.358-5.258,5.257v24.391
		c-2.01,1.6-3.192,4.025-3.192,6.616c0,4.659,3.79,8.45,8.45,8.45c4.66,0,8.451-3.791,8.451-8.45
		C37.626,36.328,36.445,33.902,34.433,32.303z M29.176,44.869c-3.281,0-5.95-2.669-5.95-5.95c0-1.986,0.987-3.835,2.64-4.944
		l0.553-0.372V7.912c0-1.521,1.237-2.757,2.758-2.757c1.521,0,2.757,1.236,2.757,2.757v25.69l0.553,0.372
		c1.654,1.11,2.641,2.958,2.641,4.944C35.126,42.2,32.457,44.869,29.176,44.869z"/>
	<path fill="#FFFFFF" d="M31.675,35.183l-1.197-0.804v-9.367v-5.613v-1.481c0-0.719-0.584-1.303-1.302-1.303
		c-0.718,0-1.303,0.584-1.303,1.303v1.481v5.613v9.367l-1.197,0.804c-1.249,0.839-1.996,2.235-1.996,3.735
		c0,2.479,2.018,4.496,4.496,4.496c2.478,0,4.496-2.018,4.496-4.496C33.671,37.418,32.925,36.021,31.675,35.183z"/>
</g>
</svg>
