<?xml version="1.0" encoding="utf-8"?>
<!-- Generator: Adobe Illustrator 16.0.0, SVG Export Plug-In . SVG Version: 6.00 Build 0)  -->
<!DOCTYPE svg PUBLIC "-//W3C//DTD SVG 1.1//EN" "http://www.w3.org/Graphics/SVG/1.1/DTD/svg11.dtd">
<svg version="1.1" id="Livello_1" xmlns="http://www.w3.org/2000/svg" xmlns:xlink="http://www.w3.org/1999/xlink" x="0px" y="0px"
	 width="57.359px" height="50px" viewBox="0 0 57.359 50" enable-background="new 0 0 57.359 50" xml:space="preserve">
<g>
	<path fill="#FFFFFF" d="M31.292,36.119h-8.019c-0.69,0-1.25,0.559-1.25,1.25c0,0.689,0.56,1.25,1.25,1.25h8.019
		c0.691,0,1.25-0.561,1.25-1.25C32.542,36.678,31.984,36.119,31.292,36.119z"/>
	<path fill="#FFFFFF" d="M29.069,41.047h-5.796c-0.69,0-1.25,0.559-1.25,1.25c0,0.689,0.56,1.25,1.25,1.25h5.796
		c0.69,0,1.25-0.561,1.25-1.25C30.32,41.605,29.759,41.047,29.069,41.047z"/>
	<path fill="#FFFFFF" d="M29.069,45.975h-5.796c-0.69,0-1.25,0.559-1.25,1.25c0,0.689,0.56,1.25,1.25,1.25h5.796
		c0.69,0,1.25-0.561,1.25-1.25C30.32,46.533,29.759,45.975,29.069,45.975z"/>
	<path fill="#FFFFFF" d="M36.003,31.191H25.747c-0.69,0-1.25,0.559-1.25,1.25c0,0.689,0.56,1.25,1.25,1.25h10.256
		c0.689,0,1.25-0.561,1.25-1.25C37.253,31.75,36.693,31.191,36.003,31.191z"/>
	<path fill="#FFFFFF" d="M38.548,26.264H23.273c-0.69,0-1.25,0.561-1.25,1.25c0,0.691,0.56,1.25,1.25,1.25h15.275
		c0.691,0,1.25-0.559,1.25-1.25C39.798,26.824,39.24,26.264,38.548,26.264z"/>
	<path fill="#FFFFFF" d="M41.986,21.336h-16.93c-0.69,0-1.25,0.56-1.25,1.25s0.56,1.25,1.25,1.25h16.93c0.689,0,1.25-0.56,1.25-1.25
		S42.675,21.336,41.986,21.336z"/>
	<path fill="#FFFFFF" d="M23.273,18.909h15.912c0.689,0,1.25-0.56,1.25-1.25s-0.561-1.25-1.25-1.25H23.273
		c-0.69,0-1.25,0.56-1.25,1.25S22.583,18.909,23.273,18.909z"/>
	<path fill="#FFFFFF" d="M48.732,11.481H25.056c-0.69,0-1.25,0.56-1.25,1.25s0.56,1.25,1.25,1.25h23.676
		c0.691,0,1.25-0.56,1.25-1.25S49.423,11.481,48.732,11.481z"/>
	<path fill="#FFFFFF" d="M43.236,7.804c0-0.69-0.561-1.25-1.25-1.25H16.153c-0.69,0-1.25,0.56-1.25,1.25s0.56,1.25,1.25,1.25h25.833
		C42.675,9.054,43.236,8.495,43.236,7.804z"/>
	<path fill="#FFFFFF" d="M38.058,2.876c0-0.69-0.561-1.25-1.25-1.25H9.144c-0.69,0-1.25,0.56-1.25,1.25s0.56,1.25,1.25,1.25h27.665
		C37.498,4.126,38.058,3.567,38.058,2.876z"/>
</g>
</svg>
