<?xml version="1.0" encoding="utf-8"?>
<!-- Generator: Adobe Illustrator 16.0.0, SVG Export Plug-In . SVG Version: 6.00 Build 0)  -->
<!DOCTYPE svg PUBLIC "-//W3C//DTD SVG 1.1//EN" "http://www.w3.org/Graphics/SVG/1.1/DTD/svg11.dtd">
<svg version="1.1" id="Livello_1" xmlns="http://www.w3.org/2000/svg" xmlns:xlink="http://www.w3.org/1999/xlink" x="0px" y="0px"
	 width="57.359px" height="50px" viewBox="0 0 57.359 50" enable-background="new 0 0 57.359 50" xml:space="preserve">
<g>
	<path fill="#FFFFFF" d="M13.834,39.371c-0.689,0-1.25,0.561-1.25,1.25v7.955c0,0.691,0.561,1.25,1.25,1.25
		c0.691,0,1.25-0.559,1.25-1.25v-7.955C15.084,39.932,14.525,39.371,13.834,39.371z"/>
	<path fill="#FFFFFF" d="M24.652,39.371c-0.689,0-1.25,0.561-1.25,1.25v7.955c0,0.691,0.561,1.25,1.25,1.25
		c0.691,0,1.25-0.559,1.25-1.25v-7.955C25.902,39.932,25.344,39.371,24.652,39.371z"/>
	<path fill="#FFFFFF" d="M35.47,39.371c-0.689,0-1.25,0.561-1.25,1.25v1.99c0,0.689,0.561,1.25,1.25,1.25
		c0.691,0,1.25-0.561,1.25-1.25v-1.99C36.72,39.932,36.162,39.371,35.47,39.371z"/>
	<path fill="#FFFFFF" d="M35.47,44.832c-0.689,0-1.25,0.578-1.25,1.268c0,0.691,0.561,1.25,1.25,1.25c0.691,0,1.25-0.559,1.25-1.25
		v-0.037C36.72,45.373,36.162,44.832,35.47,44.832z"/>
	<path fill="#FFFFFF" d="M19.244,39.371c-0.691,0-1.25,0.561-1.25,1.25v1.99c0,0.689,0.559,1.25,1.25,1.25
		c0.689,0,1.25-0.561,1.25-1.25v-1.99C20.494,39.932,19.934,39.371,19.244,39.371z"/>
	<path fill="#FFFFFF" d="M19.244,44.832c-0.691,0-1.25,0.578-1.25,1.268c0,0.691,0.559,1.25,1.25,1.25c0.689,0,1.25-0.559,1.25-1.25
		v-0.037C20.494,45.373,19.934,44.832,19.244,44.832z"/>
	<path fill="#FFFFFF" d="M40.88,39.371c-0.691,0-1.25,0.561-1.25,1.25V44.6c0,0.689,0.559,1.25,1.25,1.25
		c0.689,0,1.25-0.561,1.25-1.25v-3.979C42.13,39.932,41.57,39.371,40.88,39.371z"/>
	<path fill="#FFFFFF" d="M30.062,39.371c-0.691,0-1.25,0.561-1.25,1.25V44.6c0,0.689,0.559,1.25,1.25,1.25
		c0.689,0,1.25-0.561,1.25-1.25v-3.979C31.312,39.932,30.751,39.371,30.062,39.371z"/>
	<path fill="#FFFFFF" d="M53.708,12.21h-4.457c-0.195-1.189-0.662-2.285-1.338-3.225l2.172-2.173c0.488-0.488,0.488-1.279,0-1.768
		s-1.279-0.488-1.768,0l-2.172,2.173c-0.939-0.676-2.035-1.142-3.225-1.337V1.424c0-0.69-0.559-1.25-1.25-1.25
		c-0.689,0-1.25,0.56-1.25,1.25V5.88c-1.189,0.196-2.285,0.662-3.225,1.337l-2.172-2.172c-0.488-0.488-1.279-0.488-1.768,0
		s-0.488,1.279,0,1.768l2.172,2.172c-0.521,0.725-0.918,1.542-1.162,2.423c-0.916,0.167-1.801,0.458-2.625,0.902
		c-2.129-3.082-5.635-4.948-9.436-4.948c-6.328,0-11.476,5.147-11.476,11.476c0,0.63,0.052,1.258,0.154,1.879
		c-4.442,0.187-8,3.859-8,8.349c0,4.605,3.748,8.354,8.355,8.354h30.644c4.607,0,8.355-3.748,8.355-8.354
		c0-3.502-2.223-6.622-5.432-7.825c0.031-0.265,0.041-0.526,0.047-0.787c0.457-0.209,0.889-0.46,1.291-0.75l2.172,2.172
		c0.244,0.244,0.564,0.366,0.885,0.366s0.639-0.122,0.883-0.366c0.488-0.488,0.488-1.279,0-1.768l-2.172-2.172
		c0.676-0.939,1.143-2.036,1.338-3.224h4.457c0.689,0,1.25-0.56,1.25-1.25S54.398,12.21,53.708,12.21z M47.74,29.064
		c0,3.229-2.627,5.854-5.855,5.854H11.24c-3.229,0-5.855-2.625-5.855-5.854c0-3.229,2.627-5.856,5.855-5.856h2.942l-0.522-1.632
		c-0.285-0.89-0.43-1.812-0.43-2.739c0-4.949,4.026-8.976,8.976-8.976c3.326,0,6.364,1.829,7.928,4.773l0.686,1.289l1.168-0.876
		c0.619-0.463,1.303-0.796,2.021-1.014c0.6-0.182,1.225-0.287,1.863-0.287c0.217,0,0.43,0.012,0.641,0.032
		c2.729,0.269,4.959,2.234,5.637,4.823c0.137,0.524,0.219,1.072,0.219,1.639c0,0.287-0.027,0.581-0.07,0.877
		c-0.033,0.231-0.074,0.463-0.133,0.698l-0.313,1.254l1.264,0.271C45.794,23.915,47.74,26.322,47.74,29.064z M44.519,17.791
		c-0.975-3.434-3.938-6.034-7.563-6.472c0.818-1.794,2.617-3.049,4.715-3.049c2.861,0,5.191,2.328,5.191,5.19
		C46.863,15.27,45.927,16.862,44.519,17.791z"/>
</g>
</svg>
