<?xml version="1.0" encoding="utf-8"?>
<!-- Generator: Adobe Illustrator 16.0.0, SVG Export Plug-In . SVG Version: 6.00 Build 0)  -->
<!DOCTYPE svg PUBLIC "-//W3C//DTD SVG 1.1//EN" "http://www.w3.org/Graphics/SVG/1.1/DTD/svg11.dtd">
<svg version="1.1" id="Livello_1" xmlns="http://www.w3.org/2000/svg" xmlns:xlink="http://www.w3.org/1999/xlink" x="0px" y="0px"
	 width="57.359px" height="50px" viewBox="0 0 57.359 50" enable-background="new 0 0 57.359 50" xml:space="preserve">
<g>
	<path fill="#FFFFFF" d="M15.154,33.411c-0.002,0-0.003,0-0.005,0c-0.69,0.003-1.248,0.564-1.245,1.255l0.03,7.954
		c0.003,0.688,0.562,1.245,1.25,1.245c0.002,0,0.003,0,0.005,0c0.69-0.003,1.248-0.564,1.245-1.255l-0.03-7.954
		C16.401,33.968,15.843,33.411,15.154,33.411z"/>
	<path fill="#FFFFFF" d="M26.111,33.369c-0.002,0-0.003,0-0.005,0c-0.69,0.003-1.248,0.564-1.245,1.255l0.03,7.954
		c0.003,0.688,0.562,1.245,1.25,1.245c0.002,0,0.003,0,0.005,0c0.69-0.003,1.248-0.564,1.245-1.255l-0.03-7.954
		C27.358,33.926,26.8,33.369,26.111,33.369z"/>
	<path fill="#FFFFFF" d="M31.589,33.349c-0.002,0-0.002,0-0.004,0c-0.691,0.003-1.248,0.564-1.246,1.255l0.047,12.208
		c0.004,0.688,0.563,1.245,1.25,1.245c0.002,0,0.004,0,0.006,0c0.689-0.003,1.248-0.564,1.244-1.255l-0.047-12.208
		C32.837,33.905,32.279,33.349,31.589,33.349z"/>
	<path fill="#FFFFFF" d="M20.633,33.39c-0.002,0-0.003,0-0.005,0c-0.69,0.003-1.248,0.564-1.245,1.255l0.047,12.209
		c0.003,0.688,0.562,1.245,1.25,1.245c0.002,0,0.003,0,0.005,0c0.69-0.003,1.248-0.564,1.245-1.255l-0.047-12.209
		C21.88,33.946,21.321,33.39,20.633,33.39z"/>
	<path fill="#FFFFFF" d="M37.064,33.327c-0.691,0.003-1.248,0.564-1.246,1.255l0.031,7.955c0.002,0.688,0.561,1.245,1.25,1.245
		c0.002,0,0.002,0,0.004,0c0.691-0.003,1.248-0.564,1.246-1.255l-0.031-7.955C38.314,33.881,37.748,33.359,37.064,33.327z"/>
	<path fill="#FFFFFF" d="M42.199,33.308c-0.002,0-0.002,0-0.004,0c-0.691,0.003-1.248,0.564-1.246,1.255l0.016,3.978
		c0.004,0.688,0.563,1.245,1.25,1.245c0.002,0,0.004,0,0.006,0c0.689-0.003,1.248-0.564,1.244-1.255l-0.016-3.978
		C43.447,33.864,42.888,33.308,42.199,33.308z"/>
	<path fill="#FFFFFF" d="M46.96,15.605c0.041-0.336,0.063-0.669,0.063-0.997c0.02-4.96-4-9.01-8.99-9.029
		c-1.482,0-2.912,0.359-4.205,1.048c-2.117-3.091-5.621-4.97-9.461-4.984c-6.303,0-11.45,5.128-11.475,11.431
		c-0.003,0.631,0.047,1.259,0.147,1.88c-4.44,0.171-8.015,3.836-8.031,8.316c-0.009,2.231,0.852,4.333,2.424,5.917
		s3.667,2.461,5.898,2.47l30.644,0.117h0.033c4.59,0,8.336-3.733,8.354-8.323C52.375,19.948,50.164,16.821,46.96,15.605z
		 M44.007,29.273v1.25l-0.023-1.25L13.34,29.156c-1.564-0.006-3.032-0.62-4.134-1.73s-1.704-2.583-1.698-4.146
		c0.012-3.216,2.639-5.832,5.877-5.832l2.941,0.012l-0.517-1.634c-0.281-0.892-0.422-1.813-0.418-2.741
		c0.019-4.931,4.045-8.941,9.01-8.941c3.326,0.013,6.358,1.853,7.911,4.802l0.68,1.292l1.172-0.871
		c1.133-0.842,2.471-1.286,3.891-1.286c3.58,0.014,6.482,2.938,6.469,6.521c-0.002,0.515-0.068,1.029-0.207,1.574L44,17.426
		l1.262,0.276c2.676,0.584,4.609,2.997,4.6,5.738C49.849,26.657,47.222,29.273,44.007,29.273z"/>
	<path fill="#FFFFFF" d="M31.201,16.438c-0.002,0-0.004,0-0.006,0l-2.955,0.011L30,13.094c0.322-0.611,0.086-1.367-0.525-1.688
		c-0.611-0.321-1.367-0.086-1.688,0.525l-2.725,5.193c-0.204,0.389-0.189,0.855,0.038,1.229c0.227,0.374,0.632,0.602,1.068,0.602
		c0.002,0,0.003,0,0.005,0l2.965-0.011l-2.111,4.068c-0.318,0.613-0.079,1.367,0.533,1.686c0.185,0.096,0.381,0.141,0.575,0.141
		c0.452,0,0.888-0.245,1.11-0.674l3.064-5.902c0.201-0.389,0.186-0.854-0.043-1.228C32.041,16.664,31.636,16.438,31.201,16.438z"/>
</g>
</svg>
