<?xml version="1.0" encoding="utf-8"?>
<!-- Generator: Adobe Illustrator 16.0.0, SVG Export Plug-In . SVG Version: 6.00 Build 0)  -->
<!DOCTYPE svg PUBLIC "-//W3C//DTD SVG 1.1//EN" "http://www.w3.org/Graphics/SVG/1.1/DTD/svg11.dtd">
<svg version="1.1" id="Livello_1" xmlns="http://www.w3.org/2000/svg" xmlns:xlink="http://www.w3.org/1999/xlink" x="0px" y="0px"
	 width="57.359px" height="50px" viewBox="0 0 57.359 50" enable-background="new 0 0 57.359 50" xml:space="preserve">
<g>
	<path fill="#FFFFFF" d="M24.469,23.175c-0.69,0-1.25,0.56-1.25,1.25s0.56,1.25,1.25,1.25h18.925c0.691,0,1.25-0.56,1.25-1.25
		s-0.559-1.25-1.25-1.25H24.469z"/>
	<path fill="#FFFFFF" d="M53.664,23.175h-4.822c-0.689,0-1.25,0.56-1.25,1.25s0.561,1.25,1.25,1.25h4.822
		c0.691,0,1.25-0.56,1.25-1.25S54.355,23.175,53.664,23.175z"/>
	<path fill="#FFFFFF" d="M40.269,18.553c0,0.69,0.561,1.25,1.25,1.25h4.822c0.691,0,1.25-0.56,1.25-1.25s-0.559-1.25-1.25-1.25
		h-4.822C40.83,17.303,40.269,17.863,40.269,18.553z"/>
	<path fill="#FFFFFF" d="M35.853,14.198h4.822c0.689,0,1.25-0.56,1.25-1.25s-0.561-1.25-1.25-1.25h-4.822
		c-0.691,0-1.25,0.56-1.25,1.25S35.162,14.198,35.853,14.198z"/>
	<path fill="#FFFFFF" d="M49.429,28.943H24.171c-0.002,0-0.003,0.001-0.004,0.001c-0.031,0-0.063-0.001-0.093-0.001
		c-3.053,0-5.937,1.467-7.731,3.938c-2.556,3.519-1.772,8.462,1.747,11.019c2.923,2.123,7.036,1.475,9.163-1.452
		c1.782-2.453,1.236-5.898-1.217-7.681c-2.074-1.506-4.987-1.045-6.493,1.029c-1.286,1.771-0.892,4.258,0.879,5.544
		c0.65,0.473,1.442,0.707,2.248,0.646c0.688-0.048,1.208-0.645,1.16-1.334c-0.048-0.688-0.625-1.205-1.334-1.16
		c-0.144,0.015-0.379-0.011-0.606-0.175c-0.654-0.476-0.8-1.396-0.324-2.052c0.695-0.958,2.041-1.173,3.002-0.476
		c1.337,0.972,1.635,2.851,0.663,4.188c-1.315,1.811-3.862,2.216-5.672,0.898c-2.403-1.746-2.938-5.122-1.192-7.526
		c1.341-1.846,3.491-2.9,5.79-2.905c0.005,0,0.01,0,0.015,0c0.001,0,0.003-0.001,0.005-0.001h25.253c0.689,0,1.25-0.56,1.25-1.25
		C50.679,29.504,50.119,28.943,49.429,28.943z"/>
	<path fill="#FFFFFF" d="M35.667,19.803c0.691,0,1.25-0.56,1.25-1.25s-0.559-1.25-1.25-1.25H14.3c-0.002,0-0.004-0.001-0.005-0.001
		c-0.032,0.003-0.064,0.002-0.097,0.001c-2.255,0-4.384-1.083-5.708-2.906c-1.746-2.403-1.211-5.78,1.192-7.527
		c0.877-0.637,1.952-0.895,3.022-0.725c1.071,0.17,2.013,0.747,2.649,1.624c0.972,1.338,0.674,3.217-0.664,4.189
		c-0.958,0.695-2.305,0.481-3.002-0.477c-0.475-0.655-0.329-1.574,0.323-2.051c0.001,0,0.002,0,0.003-0.001
		c0.104-0.075,0.218-0.127,0.341-0.155c0.673-0.152,1.095-0.822,0.941-1.496c-0.132-0.58-0.647-0.973-1.218-0.973
		c-0.092,0-0.185,0.01-0.278,0.031c-0.454,0.104-0.877,0.295-1.255,0.569c-0.003,0.001-0.003,0.004-0.006,0.005
		c-1.766,1.287-2.158,3.77-0.874,5.539c1.508,2.074,4.421,2.535,6.494,1.03c2.453-1.783,2.999-5.229,1.218-7.681
		c-1.03-1.418-2.551-2.35-4.281-2.624c-0.348-0.056-0.696-0.083-1.041-0.083c-1.374,0-2.709,0.432-3.842,1.254
		c-3.52,2.558-4.303,7.5-1.747,11.019c1.795,2.471,4.679,3.938,7.731,3.938c0.03,0,0.062-0.001,0.092-0.001
		c0.002,0,0.003,0.001,0.005,0.001H35.667z"/>
</g>
</svg>
