<?xml version="1.0" encoding="utf-8"?>
<!-- Generator: Adobe Illustrator 16.0.0, SVG Export Plug-In . SVG Version: 6.00 Build 0)  -->
<!DOCTYPE svg PUBLIC "-//W3C//DTD SVG 1.1//EN" "http://www.w3.org/Graphics/SVG/1.1/DTD/svg11.dtd">
<svg version="1.1" id="Livello_1" xmlns="http://www.w3.org/2000/svg" xmlns:xlink="http://www.w3.org/1999/xlink" x="0px" y="0px"
	 width="57.359px" height="50px" viewBox="0 0 57.359 50" enable-background="new 0 0 57.359 50" xml:space="preserve">
<g>
	<path fill="#FFFFFF" d="M53.04,13.664c0-3.029-1.18-5.878-3.322-8.021c-1.541-1.541-3.486-2.599-5.625-3.06l-2.443-0.526
		l1.045,2.271c0.941,2.048,0.91,4.36,0.051,6.356c-1.512-1.154-3.393-1.848-5.438-1.848c-1.494,0-2.934,0.365-4.232,1.064
		c-2.129-3.082-5.635-4.948-9.435-4.948c-6.328,0-11.477,5.146-11.477,11.476c0,0.629,0.053,1.258,0.156,1.879
		c-4.443,0.186-8,3.857-8,8.346c0,4.607,3.748,8.354,8.354,8.354h30.644c4.607,0,8.355-3.747,8.355-8.354
		c0-1.912-0.68-3.697-1.805-5.132C51.911,19.397,53.04,16.62,53.04,13.664z M43.317,32.507H12.673c-3.228,0-5.854-2.626-5.854-5.854
		s2.626-5.854,5.854-5.854h2.943l-0.523-1.632c-0.285-0.889-0.43-1.811-0.43-2.738c0-4.95,4.027-8.976,8.977-8.976
		c3.326,0,6.363,1.829,7.929,4.771l0.686,1.29l1.168-0.877c1.135-0.851,2.477-1.301,3.885-1.301c1.549,0,2.973,0.548,4.09,1.456
		c0.658,0.535,1.211,1.195,1.619,1.945c0.502,0.921,0.785,1.975,0.785,3.095c0,0.514-0.066,1.028-0.201,1.574l-0.313,1.254
		l1.264,0.271c0.488,0.104,0.939,0.287,1.371,0.504c0.807,0.405,1.504,0.98,2.041,1.688c0.756,0.994,1.209,2.22,1.209,3.529
		C49.172,29.881,46.545,32.507,43.317,32.507z M48.053,19.806c-0.561-0.391-1.158-0.732-1.811-0.978
		c0.039-0.336,0.059-0.668,0.059-0.996c0-1.959-0.635-3.768-1.701-5.246c1.137-2.059,1.555-4.457,1.15-6.779
		c0.807,0.416,1.549,0.954,2.199,1.604c1.67,1.671,2.59,3.892,2.59,6.253C50.54,15.977,49.655,18.147,48.053,19.806z"/>
	<path fill="#FFFFFF" d="M35.368,37.047c-0.689,0-1.25,0.559-1.25,1.25v1.989c0,0.69,0.561,1.25,1.25,1.25
		c0.691,0,1.25-0.56,1.25-1.25v-1.989C36.618,37.605,36.059,37.047,35.368,37.047z"/>
	<path fill="#FFFFFF" d="M35.368,42.803c-0.689,0-1.25,0.586-1.25,1.275c0,0.691,0.561,1.25,1.25,1.25c0.691,0,1.25-0.559,1.25-1.25
		v-0.053C36.618,43.334,36.059,42.803,35.368,42.803z"/>
	<path fill="#FFFFFF" d="M35.368,46.404c-0.689,0-1.25,0.588-1.25,1.277c0,0.691,0.561,1.25,1.25,1.25c0.691,0,1.25-0.559,1.25-1.25
		v-0.054C36.618,46.937,36.059,46.404,35.368,46.404z"/>
	<path fill="#FFFFFF" d="M14.268,42.803c-0.69,0-1.25,0.586-1.25,1.275c0,0.691,0.56,1.25,1.25,1.25s1.25-0.559,1.25-1.25v-0.053
		C15.518,43.334,14.958,42.803,14.268,42.803z"/>
	<path fill="#FFFFFF" d="M24.413,37.047c-0.69,0-1.25,0.559-1.25,1.25v1.989c0,0.69,0.56,1.25,1.25,1.25s1.25-0.56,1.25-1.25v-1.989
		C25.663,37.605,25.104,37.047,24.413,37.047z"/>
	<path fill="#FFFFFF" d="M19.142,37.271c-0.691,0-1.25,0.561-1.25,1.25v3.752c0,0.691,0.559,1.25,1.25,1.25
		c0.689,0,1.25-0.559,1.25-1.25v-3.752C20.392,37.832,19.831,37.271,19.142,37.271z"/>
	<path fill="#FFFFFF" d="M40.778,37.047c-0.691,0-1.25,0.559-1.25,1.25v1.206c0,0.69,0.559,1.25,1.25,1.25
		c0.689,0,1.25-0.56,1.25-1.25v-1.206C42.028,37.605,41.467,37.047,40.778,37.047z"/>
	<path fill="#FFFFFF" d="M14.268,37.047c-0.69,0-1.25,0.559-1.25,1.25v2.412c0,0.689,0.56,1.25,1.25,1.25s1.25-0.561,1.25-1.25
		v-2.412C15.518,37.605,14.958,37.047,14.268,37.047z"/>
	<path fill="#FFFFFF" d="M29.959,37.047c-0.691,0-1.25,0.559-1.25,1.25v3.977c0,0.691,0.558,1.25,1.25,1.25
		c0.689,0,1.25-0.559,1.25-1.25v-3.977C31.209,37.605,30.649,37.047,29.959,37.047z"/>
</g>
</svg>
