<?xml version="1.0" encoding="utf-8"?>
<!-- Generator: Adobe Illustrator 16.0.0, SVG Export Plug-In . SVG Version: 6.00 Build 0)  -->
<!DOCTYPE svg PUBLIC "-//W3C//DTD SVG 1.1//EN" "http://www.w3.org/Graphics/SVG/1.1/DTD/svg11.dtd">
<svg version="1.1" id="Livello_1" xmlns="http://www.w3.org/2000/svg" xmlns:xlink="http://www.w3.org/1999/xlink" x="0px" y="0px"
	 width="57.359px" height="50px" viewBox="0 0 57.359 50" enable-background="new 0 0 57.359 50" xml:space="preserve">
<path fill="#FFFFFF" d="M25.605,41.005c-3.112,0-6.146-0.896-8.771-2.592l-2.101-1.355l2.346-0.867
	c4.754-1.757,7.948-6.334,7.948-11.391c0-5.056-3.194-9.634-7.949-11.392l-2.345-0.867l2.101-1.355
	c2.626-1.695,5.659-2.591,8.771-2.591c8.936,0,16.205,7.27,16.205,16.205S34.541,41.005,25.605,41.005z M20.286,37.424
	c1.679,0.712,3.482,1.081,5.319,1.081c7.558,0,13.705-6.148,13.705-13.705s-6.147-13.705-13.705-13.705
	c-1.837,0-3.642,0.369-5.319,1.08c4.414,2.601,7.241,7.401,7.241,12.625C27.527,30.024,24.701,34.824,20.286,37.424z"/>
</svg>
