<?xml version="1.0" ?><!DOCTYPE svg  PUBLIC '-//W3C//DTD SVG 1.0//EN'  'http://www.w3.org/TR/2001/REC-SVG-20010904/DTD/svg10.dtd'><svg height="110px" style="enable-background:new 0 0 110 110;" version="1.0" viewBox="0 0 110 110" width="110px" xml:space="preserve" xmlns="http://www.w3.org/2000/svg" xmlns:xlink="http://www.w3.org/1999/xlink"><g id="Multicolor"><g><g><polygon points="62.72,44 56.797,47.699 60.079,53.864 53.097,54.098 52.863,61.079 46.699,57.797      43,63.72 39.301,57.797 33.136,61.079 32.902,54.097 25.921,53.863 29.203,47.699 23.28,44 29.203,40.301 25.921,34.136      32.903,33.902 33.137,26.921 39.301,30.203 43,24.28 46.699,30.203 52.864,26.921 53.098,33.903 60.079,34.137 56.797,40.301         " style="fill:#FBEC9A;"/></g><g><circle cx="43" cy="44" r="12" style="fill:#FACB1B;"/></g><g><path d="M87,58c0-4.898-3.524-8.967-8.174-9.826C76.552,42.784,71.218,39,65,39     c-5.415,0-10.145,2.879-12.782,7.179C50.327,44.814,48.011,44,45.5,44c-5.243,0-9.658,3.512-11.042,8.31     C28.65,50.845,23,54.742,23,60c0,5.188,5.528,9.11,11.345,7.716C35.93,70.283,38.761,72,42,72c2.811,0,5.32-1.29,6.97-3.309     C51.69,73.642,56.952,77,63,77c6.33,0,11.785-3.686,14.38-9.019C82.725,67.78,87,63.395,87,58z" style="fill:#F0F1F1;"/></g><g><path d="M65.071,39c-5.415,0-10.145,2.879-12.782,7.179C50.398,44.814,48.082,44,45.571,44     c-5.243,0-9.658,3.512-11.042,8.31c-5.808-1.465-11.458,2.432-11.458,7.69c0,5.188,5.528,9.11,11.345,7.716     C36.002,70.283,38.833,72,42.071,72c2.33,0,4.444-0.896,6.042-2.348c0.004-0.004,0.938-0.945,0.94-0.94L75,42.765     C72.355,40.425,68.881,39,65.071,39z" style="fill:#FFFFFF;"/></g></g></g></svg>