<?xml version="1.0" ?><!DOCTYPE svg  PUBLIC '-//W3C//DTD SVG 1.1//EN'  'http://www.w3.org/Graphics/SVG/1.1/DTD/svg11.dtd'><svg enable-background="new 0 0 24 24" height="24px" id="Layer_1" version="1.1" viewBox="0 0 24 24" width="24px" xml:space="preserve" xmlns="http://www.w3.org/2000/svg" xmlns:xlink="http://www.w3.org/1999/xlink"><g><path d="M22.4,15.4L22.4,15.4c1-1.6,1.6-3.4,1.6-5.4c0-5.5-4.5-10-10-10S4,4.3,4,9.9C4,10.6,4.1,12,4.3,12c0,0,0,0,0,0   C1.8,13,0,15.2,0,17.9C0,21.2,2.7,24,6,24h13c2.8,0,5-2.2,5-5C24,17.6,23.4,16.3,22.4,15.4z M5,10c0-5,4-9,9-9s9,4,9,9   c0,1.8-0.5,3.4-1.4,4.8c0,0,0,0,0,0c-0.3-0.2-0.6-0.3-0.9-0.4c0.8-1.2,1.3-2.7,1.3-4.3c0-4.4-3.6-8-8-8s-8,3.6-8,8   c0,0.7,0.1,1.4,0.3,2c0.1-0.2,0.3-0.3,0.4-0.5c-0.1,0.2-0.3,0.3-0.4,0.5c-0.1,0-0.2,0-0.2,0c-0.3,0-0.5,0-0.8,0.1l0,0   C5.1,11.4,5,10.7,5,10z M12,9c-1.1,0-2.1,0.2-3,0.7C9.2,7.1,11.4,5,14,5c2.8,0,5,2.2,5,5c0,1-0.3,2-0.8,2.7C17,10.5,14.7,9,12,9z    M20,10c0-3.3-2.7-6-6-6s-6,2.7-6,6c0,0.1,0,0.2,0,0.2c0,0,0,0,0,0c-0.3,0.2-0.6,0.5-0.9,0.8c0,0,0,0,0,0C7,10.7,7,10.4,7,10   c0-3.9,3.1-7,7-7s7,3.1,7,7c0,1.5-0.5,2.9-1.3,4.1h0C19.5,14,19.2,14,19,14c-0.1,0-0.2,0-0.3,0c0-0.1-0.1-0.1-0.1-0.2   C19.5,12.8,20,11.4,20,10z M19,22H6c-2.2,0-4-1.8-4-4c0-0.3,0-0.5,0.1-0.8c0-0.1,0-0.2,0.1-0.2c0-0.2,0.1-0.3,0.1-0.5   c0-0.1,0.1-0.2,0.1-0.3c0.1-0.1,0.1-0.2,0.2-0.4c0.1-0.1,0.1-0.2,0.2-0.3c0.1-0.1,0.1-0.2,0.2-0.3c0.1-0.1,0.2-0.2,0.3-0.3   c0.1-0.1,0.2-0.1,0.2-0.2c0.1-0.1,0.2-0.2,0.3-0.2c0.1,0,0.2-0.1,0.2-0.1c0.1-0.1,0.3-0.1,0.4-0.2c0.1,0,0.1,0,0.2-0.1   C5.2,14.1,5.6,14,6,14c0.5,0,0.9,0.1,1.3,0.2c0.7-1.7,2.2-3,4.1-3.2c0,0,0.1,0,0.1,0c0.2,0,0.3,0,0.5,0c1.1,0,2.1,0.4,2.9,1   c0,0,0,0,0,0c0.9,0.6,1.5,1.5,1.8,2.6c0.1,0.2,0.1,0.4,0.2,0.6c0,0.3,0.1,0.5,0.1,0.8h2c1.7,0,3,1.3,3,3S20.7,22,19,22z"/><path d="M12,12v1c1.7,0,3,1.3,3,3h1C16,13.8,14.2,12,12,12z"/></g></svg>