<?xml version="1.0" encoding="utf-8"?>
<!-- Generator: Adobe Illustrator 16.0.0, SVG Export Plug-In . SVG Version: 6.00 Build 0)  -->
<!DOCTYPE svg PUBLIC "-//W3C//DTD SVG 1.1//EN" "http://www.w3.org/Graphics/SVG/1.1/DTD/svg11.dtd">
<svg version="1.1" id="Livello_1" xmlns="http://www.w3.org/2000/svg" xmlns:xlink="http://www.w3.org/1999/xlink" x="0px" y="0px"
	 width="57.359px" height="50px" viewBox="0 0 57.359 50" enable-background="new 0 0 57.359 50" xml:space="preserve">
<path fill="#FFFFFF" d="M53.738,20.183c0-3.03-1.18-5.879-3.322-8.021c-1.541-1.542-3.486-2.6-5.625-3.06l-2.443-0.526l1.045,2.271
	c0.941,2.047,0.91,4.36,0.051,6.355c-1.512-1.153-3.393-1.847-5.438-1.847c-1.494,0-2.934,0.364-4.23,1.063
	c-2.131-3.082-5.637-4.948-9.437-4.948c-6.328,0-11.477,5.147-11.477,11.476c0,0.63,0.053,1.258,0.156,1.879
	c-4.443,0.186-8,3.858-8,8.347c0,4.606,3.748,8.354,8.354,8.354h30.646c4.605,0,8.354-3.748,8.354-8.354
	c0-1.913-0.68-3.698-1.805-5.132C52.609,25.915,53.738,23.138,53.738,20.183z M46.449,12.325c0.807,0.415,1.549,0.954,2.199,1.604
	c1.67,1.671,2.59,3.892,2.59,6.254c0,2.312-0.885,4.483-2.486,6.141c-0.561-0.39-1.158-0.732-1.811-0.977
	C46.98,25.011,47,24.678,47,24.35c0-1.958-0.635-3.768-1.701-5.246C46.435,17.046,46.853,14.647,46.449,12.325z M44.017,39.025
	H13.371c-3.228,0-5.854-2.626-5.854-5.854s2.626-5.854,5.854-5.854h2.943l-0.523-1.632c-0.285-0.89-0.43-1.812-0.43-2.739
	c0-4.949,4.027-8.976,8.977-8.976c3.326,0,6.363,1.829,7.929,4.772l0.686,1.289l1.168-0.876c1.135-0.851,2.477-1.301,3.885-1.301
	c1.549,0,2.973,0.547,4.09,1.456c0.658,0.536,1.211,1.195,1.619,1.945c0.502,0.92,0.785,1.975,0.785,3.094
	c0,0.515-0.066,1.029-0.201,1.574l-0.313,1.254l1.264,0.271c0.488,0.104,0.939,0.287,1.371,0.504
	c0.807,0.406,1.504,0.98,2.041,1.688c0.756,0.994,1.209,2.221,1.209,3.53C49.871,36.399,47.246,39.025,44.017,39.025z"/>
</svg>
