<?xml version="1.0" encoding="utf-8"?>
<!-- Generator: Adobe Illustrator 16.0.0, SVG Export Plug-In . SVG Version: 6.00 Build 0)  -->
<!DOCTYPE svg PUBLIC "-//W3C//DTD SVG 1.1//EN" "http://www.w3.org/Graphics/SVG/1.1/DTD/svg11.dtd">
<svg version="1.1" id="Livello_1" xmlns="http://www.w3.org/2000/svg" xmlns:xlink="http://www.w3.org/1999/xlink" x="0px" y="0px"
	 width="57.359px" height="50px" viewBox="0 0 57.359 50" enable-background="new 0 0 57.359 50" xml:space="preserve">
<g>
	<path fill="#FFFFFF" d="M46.931,16.778c0.039-0.336,0.059-0.669,0.059-0.997c0-4.96-4.035-8.995-8.994-8.995
		c-1.492,0-2.934,0.364-4.232,1.063c-2.129-3.082-5.634-4.948-9.435-4.948c-6.328,0-11.476,5.147-11.476,11.476
		c0,0.63,0.052,1.258,0.155,1.879c-4.443,0.186-8,3.858-8,8.347c0,4.607,3.748,8.355,8.354,8.355h30.645
		c4.605,0,8.354-3.748,8.354-8.355C52.361,21.102,50.138,17.982,46.931,16.778z M44.007,30.458H13.362
		c-3.229,0-5.854-2.627-5.854-5.855s2.626-5.854,5.854-5.854h2.942l-0.522-1.632c-0.285-0.89-0.43-1.812-0.43-2.739
		c0-4.949,4.026-8.976,8.976-8.976c3.326,0,6.365,1.828,7.929,4.772l0.684,1.289l1.17-0.876c1.135-0.851,2.479-1.301,3.885-1.301
		c3.582,0,6.494,2.914,6.494,6.495c0,0.508-0.066,1.037-0.201,1.575l-0.311,1.253l1.262,0.271c2.678,0.574,4.621,2.98,4.621,5.722
		C49.861,27.831,47.236,30.458,44.007,30.458z"/>
	<path fill="#FFFFFF" d="M23.115,38.935h-2.299l1.414-2.673c0.323-0.61,0.091-1.367-0.52-1.689c-0.609-0.322-1.367-0.091-1.689,0.52
		L17.636,39.6c-0.205,0.388-0.192,0.854,0.033,1.229c0.227,0.376,0.633,0.605,1.071,0.605h2.309l-1.725,3.292
		c-0.32,0.611-0.084,1.367,0.527,1.688c0.186,0.097,0.384,0.143,0.579,0.143c0.45,0,0.885-0.243,1.108-0.67l2.684-5.122
		c0.203-0.388,0.188-0.853-0.038-1.228C23.958,39.163,23.553,38.935,23.115,38.935z"/>
	<path fill="#FFFFFF" d="M30.873,38.935h-2.299l1.415-2.673c0.322-0.61,0.09-1.367-0.52-1.689c-0.609-0.322-1.367-0.091-1.689,0.52
		L25.393,39.6c-0.205,0.388-0.192,0.854,0.033,1.229c0.227,0.376,0.633,0.605,1.071,0.605h2.309l-1.725,3.292
		c-0.32,0.611-0.084,1.367,0.527,1.688c0.186,0.097,0.384,0.143,0.579,0.143c0.45,0,0.885-0.243,1.108-0.67l2.684-5.122
		c0.203-0.388,0.188-0.853-0.039-1.228C31.714,39.163,31.31,38.935,30.873,38.935z"/>
	<path fill="#FFFFFF" d="M38.628,38.935H36.33l1.416-2.673c0.322-0.61,0.09-1.366-0.52-1.689c-0.609-0.322-1.367-0.091-1.689,0.52
		L33.15,39.6c-0.205,0.388-0.193,0.854,0.033,1.229c0.227,0.376,0.633,0.605,1.07,0.605h2.309l-1.725,3.292
		c-0.32,0.611-0.084,1.367,0.527,1.688c0.186,0.097,0.385,0.143,0.58,0.143c0.449,0,0.885-0.243,1.107-0.67l2.684-5.122
		c0.203-0.388,0.189-0.853-0.037-1.228C39.472,39.163,39.066,38.935,38.628,38.935z"/>
</g>
</svg>
