<?xml version="1.0" encoding="utf-8"?>
<!-- Generator: Adobe Illustrator 16.0.0, SVG Export Plug-In . SVG Version: 6.00 Build 0)  -->
<!DOCTYPE svg PUBLIC "-//W3C//DTD SVG 1.1//EN" "http://www.w3.org/Graphics/SVG/1.1/DTD/svg11.dtd">
<svg version="1.1" id="Livello_1" xmlns="http://www.w3.org/2000/svg" xmlns:xlink="http://www.w3.org/1999/xlink" x="0px" y="0px"
	 width="57.359px" height="50px" viewBox="0 0 57.359 50" enable-background="new 0 0 57.359 50" xml:space="preserve">
<g>
	<path fill="#FFFFFF" d="M42.843,34.822c-2.078,2.08-4.84,3.225-7.777,3.225c-6.059,0-10.99-4.931-10.99-10.989
		c0-6.06,4.931-10.991,10.99-10.991c2.939,0,5.701,1.145,7.777,3.225c0.486,0.488,1.279,0.488,1.768,0.001s0.488-1.278,0.002-1.768
		c-2.549-2.552-5.939-3.958-9.547-3.958c-7.438,0-13.49,6.053-13.49,13.491c0,7.438,6.052,13.489,13.49,13.489
		c3.605,0,6.996-1.405,9.545-3.957c0.488-0.488,0.488-1.279,0-1.768C44.123,34.333,43.33,34.336,42.843,34.822z"/>
	<path fill="#FFFFFF" d="M16.437,8.836c-1.952,0-3.54,1.588-3.54,3.541c0,1.951,1.588,3.539,3.54,3.539
		c1.951,0,3.539-1.588,3.539-3.539C19.976,10.424,18.388,8.836,16.437,8.836z M16.437,13.416c-0.573,0-1.04-0.466-1.04-1.039
		c0-0.574,0.467-1.041,1.04-1.041s1.039,0.467,1.039,1.041C17.476,12.95,17.01,13.416,16.437,13.416z"/>
</g>
</svg>
